:SAMPLES-PER-SECOND 30
:FULLY-SPECIFIED
:DEGREES
146
root  6.053066629 40.76711099 0.5317755572 -7.991027832 -51.24899292 8.130004883
lowerback  12.66090012 1.674129963 1.379070044
upperback  3.746520042 2.36954999 1.743999958
thorax  -3.180710077 1.133030057 0.6832770109
lowerneck  -7.477099895 6.848559856 -0.8079739809
upperneck  9.444959641 9.127030373 1.474230051
head  4.338970184 4.539340019 1.184810042
lclavicle  0 -9.442270133e-015 7.951389973e-016
lhumerus  -8.802140236 -17.35950089 84.12599945
lradius  2.866992824e-031 -2.061357849e-031 144.2839966
lwrist  -7.062250077e-031 -1.765562519e-031 6.938580036
lhand  -1.496451383e-031 -27.76390076 20.11240005
lfingers  90 7.125020027 -90
lthumb  89.89689403 5.08795885 91.16245106
rclavicle  0 -9.442270133e-015 7.951389973e-016
rhumerus  1.548709989 29.29129982 -78.21640015
rradius  -2.59482481e-031 2.394938045e-031 137.2940063
rwrist  0 -0 -9.226409912
rhand  -7.920061211e-032 -33.2840004 9.303460121
rfingers  -90 -7.125020027 -90
rthumb  -92.93752616 -24.25625642 -97.11982154
rfemur  -21.75390053 14.38490009 5.039770126
rtibia  -0 0 52.62350082
rfoot  -0 -7.163700104 13.96420002
rtoes  5.373923086 19.29304026 -105.8922705
lfemur  -26.90279961 10.75399971 -15.56939983
ltibia  -0 0 62.48600006
lfoot  4.45624389e-032 7.904250145 -5.565820217
ltoes  -4.250644065 -19.5611806 -102.515957
147
root  6.121555464 40.79155509 0.5620800135 -8.213989258 -51.65499878 8.435974121
lowerback  12.92739964 1.835839987 1.043259978
upperback  3.842190027 2.542500019 1.798410058
thorax  -3.243710041 1.217069983 0.8961129785
lowerneck  -7.430570126 6.904109955 -0.5928450227
upperneck  9.653240204 9.159420013 1.61382997
head  4.408619881 4.567900181 1.201689959
lclavicle  0 -9.442270133e-015 7.951389973e-016
lhumerus  -8.201259613 -17.16600037 83.44059753
lradius  2.868754527e-031 -2.058905413e-031 144.3329926
lwrist  -1.412450015e-030 -1.765562519e-031 6.976920128
lhand  -1.496451383e-031 -27.76390076 20.11240005
lfingers  90 7.125020027 -90
lthumb  89.89689403 5.08795885 91.16245106
rclavicle  0 -9.442270133e-015 7.951389973e-016
rhumerus  1.924600005 29.73489952 -77.97180176
rradius  -2.514901725e-031 2.478732206e-031 135.4149933
rwrist  7.062250077e-031 -0 -5.311970234
rhand  -7.920061211e-032 -33.2840004 9.303460121
rfingers  -90 -7.125020027 -90
rthumb  -92.93752616 -24.25625642 -97.11982154
rfemur  -22.25359917 14.52670002 4.15651989
rtibia  -0 0 52.6026001
rfoot  -0 -5.846020222 15.72309971
rtoes  5.373923086 19.29304026 -105.8922705
lfemur  -27.41740036 10.60350037 -15.32530022
ltibia  -0 0 62.2521019
lfoot  4.44662416e-032 6.954750061 -5.41779995
ltoes  -4.250644065 -19.5611806 -102.515957
148
root  6.178688815 40.80711124 0.5973511324 -8.536987305 -52.11699677 8.815979004
lowerback  13.08520031 2.001729965 0.681738019
upperback  3.940320015 2.712879896 1.80490005
thorax  -3.245739937 1.300480008 1.076470017
lowerneck  -7.280010223 6.940209866 -0.3381359875
upperneck  9.807559967 9.167949677 1.682629943
head  4.444079876 4.583280087 1.180240035
lclavicle  0 -9.442270133e-015 7.951389973e-016
lhumerus  -7.555369854 -17.00970078 82.62039948
lradius  2.870658162e-031 -2.056250411e-031 144.3860016
lwrist  -7.062250077e-031 -0 6.640979767
lhand  -1.496451383e-031 -27.76390076 20.11240005
lfingers  90 7.125020027 -90
lthumb  89.89689403 5.08795885 91.16245106
rclavicle  0 -9.442270133e-015 7.951389973e-016
rhumerus  2.43159008 29.23800087 -77.86190033
rradius  -2.495356576e-031 2.498407412e-031 134.9649963
rwrist  0 -0 -6.423460007
rhand  -7.920061211e-032 -33.2840004 9.303460121
rfingers  -90 -7.125020027 -90
rthumb  -92.93752616 -24.25625642 -97.11982154
rfemur  -22.73530006 14.67399979 3.350199938
rtibia  -0 0 52.64429855
rfoot  -0 -4.550899982 17.33499908
rtoes  5.373923086 19.29304026 -105.8922705
lfemur  -27.69879913 10.35079956 -15.06480026
ltibia  -0 0 61.74520111
lfoot  4.436252987e-032 5.753320217 -4.516479969
ltoes  -4.250644065 -19.5611806 -102.515957
149
root  6.231933504 40.80599988 0.6331088975 -8.781005859 -52.53099823 9.00201416
lowerback  13.24100018 2.124759912 0.3763099909
upperback  4.021039963 2.837470055 1.921910048
thorax  -3.268660069 1.360499978 1.347000003
lowerneck  -7.07159996 6.981760025 -0.4025790095
upperneck  9.992750168 9.210149765 1.850610018
head  4.456369877 4.608650208 1.244979978
lclavicle  0 -9.442270133e-015 7.951389973e-016
lhumerus  -6.952119827 -16.8470993 81.97350311
lradius  2.871339782e-031 -2.055298493e-031 144.4049988
lwrist  0 -1.765562519e-031 6.091629982
lhand  -1.496451383e-031 -27.76390076 20.11240005
lfingers  90 7.125020027 -90
lthumb  89.89689403 5.08795885 91.16245106
rclavicle  0 -9.442270133e-015 7.951389973e-016
rhumerus  2.894629955 27.99239922 -77.66169739
rradius  -2.541277197e-031 2.451683961e-031 136.0279999
rwrist  7.062250077e-031 1.765562519e-031 -11.78859997
rhand  -7.920061211e-032 -33.2840004 9.303460121
rfingers  -90 -7.125020027 -90
rthumb  -92.93752616 -24.25625642 -97.11982154
rfemur  -23.07460022 14.71899986 2.802139997
rtibia  -0 0 52.80870056
rfoot  -0 -3.883179903 18.30109978
rtoes  5.373923086 19.29304026 -105.8922705
lfemur  -27.7737999 9.995800018 -14.63449955
ltibia  -0 0 61.04959869
lfoot  4.42745184e-032 4.483009815 -3.049129963
ltoes  -4.250644065 -19.5611806 -102.515957
150
root  6.269733174 40.78933235 0.6743622108 -9.039978027 -52.84300232 9.210998535
lowerback  13.25969982 2.228189945 0.0297388006
upperback  4.100080013 2.927959919 1.984709978
thorax  -3.21875 1.404360056 1.594009995
lowerneck  -6.979219913 7.019139767 -0.4423919916
upperneck  10.26329994 9.237480164 2.06972003
head  4.522109985 4.629469872 1.330809951
lclavicle  0 -9.442270133e-015 7.951389973e-016
lhumerus  -6.253600121 -16.67350006 81.14700317
lradius  2.868790716e-031 -2.058854989e-031 144.3339996
lwrist  -1.412450015e-030 -1.765562519e-031 5.756130219
lhand  -1.496451383e-031 -27.76390076 20.11240005
lfingers  90 7.125020027 -90
lthumb  89.89689403 5.08795885 91.16245106
rclavicle  0 -9.442270133e-015 7.951389973e-016
rhumerus  3.098020077 28.72509956 -77.53869629
rradius  -2.46107038e-031 2.53218811e-031 134.1840057
rwrist  7.062250077e-031 -1.765562519e-031 -6.364640236
rhand  -7.920061211e-032 -33.2840004 9.303460121
rfingers  -90 -7.125020027 -90
rthumb  -92.93752616 -24.25625642 -97.11982154
rfemur  -23.26029968 14.65040016 2.351860046
rtibia  -0 0 53.18180084
rfoot  -0 -4.348700047 17.7758007
rtoes  5.373923086 19.29304026 -105.8922705
lfemur  -27.66329956 9.496230125 -14.2027998
ltibia  -0 0 60.18500137
lfoot  5.526356638e-032 3.26560998 -1.151110053
ltoes  -4.250644065 -19.5611806 -102.515957
151
root  6.283644428 40.74422281 0.7234466827 -9.450012207 -53.08999634 9.622009277
lowerback  13.0564003 2.293849945 -0.4610950053
upperback  4.185679913 2.946039915 1.909350038
thorax  -3.040030003 1.413110018 1.797500014
lowerneck  -6.848340034 7.076729774 -0.3272489905
upperneck  10.38150024 9.272359848 2.305480003
head  4.531799793 4.661940098 1.389150023
lclavicle  0 -9.442270133e-015 7.951389973e-016
lhumerus  -5.416629791 -16.37010002 80.03800201
lradius  2.862669418e-031 -2.067357696e-031 144.1640015
lwrist  -1.412450015e-030 -0 5.886030197
lhand  -1.496451383e-031 -27.76390076 20.11240005
lfingers  90 7.125020027 -90
lthumb  89.89689403 5.08795885 91.16245106
rclavicle  0 -9.442270133e-015 7.951389973e-016
rhumerus  3.606450081 28.34970093 -77.76519775
rradius  -2.441552084e-031 2.551013026e-031 133.7440033
rwrist  1.412450015e-030 -0 -6.4790802
rhand  -7.920061211e-032 -33.2840004 9.303460121
rfingers  -90 -7.125020027 -90
rthumb  -92.93752616 -24.25625642 -97.11982154
rfemur  -23.33250046 14.62180042 1.903920054
rtibia  -0 0 53.80709839
rfoot  -0 -5.826779842 15.2869997
rtoes  5.373923086 19.29304026 -105.8922705
lfemur  -27.36779976 8.7791996 -13.86139965
ltibia  -0 0 59.13209915
lfoot  4.417086799e-032 2.174420118 0.9064739943
ltoes  -4.250644065 -19.5611806 -102.515957
152
root  6.280022343 40.66244411 0.7810155707 -9.729980469 -53.23600006 9.841003418
lowerback  12.76500034 2.259880066 -0.9299889803
upperback  4.18885994 2.844170094 1.892910004
thorax  -2.896480083 1.362879992 2.070100069
lowerneck  -6.728499889 7.188690186 -0.3376829922
upperneck  10.61019993 9.387809753 2.591540098
head  4.573219776 4.73127985 1.494570017
lclavicle  0 -9.442270133e-015 7.951389973e-016
lhumerus  -4.746500015 -15.92080021 79.03089905
lradius  2.857790578e-031 -2.074096683e-031 144.029007
lwrist  -7.062250077e-031 -1.765562519e-031 6.230259895
lhand  -1.496451383e-031 -27.76390076 20.11240005
lfingers  90 7.125020027 -90
lthumb  89.89689403 5.08795885 91.16245106
rclavicle  0 -9.442270133e-015 7.951389973e-016
rhumerus  4.032120228 28.1685009 -78.03790283
rradius  -2.423503702e-031 2.568165463e-031 133.3399963
rwrist  7.062250077e-031 -3.531125038e-031 -6.776299953
rhand  -7.920061211e-032 -33.2840004 9.303460121
rfingers  -90 -7.125020027 -90
rthumb  -92.93752616 -24.25625642 -97.11982154
rfemur  -23.25849915 14.54109955 1.703430057
rtibia  -0 0 54.66669846
rfoot  -0 -7.667449951 11.35050011
rtoes  5.373923086 19.29304026 -105.8922705
lfemur  -26.91360092 7.756999969 -13.35599995
ltibia  -0 0 57.94820023
lfoot  6.622114546e-032 1.115540028 2.998280048
ltoes  -4.250644065 -19.5611806 -102.515957
153
root  6.264133153 40.55333475 0.8485911399 -9.948974609 -53.36799622 9.927978516
lowerback  12.38860035 2.237910032 -1.244899988
upperback  4.148039818 2.781569958 1.850250006
thorax  -2.744400024 1.332839966 2.224020004
lowerneck  -6.850900173 7.219150066 -0.4553380013
upperneck  11.51169968 9.369070053 3.0943501
head  4.395349979 4.754260063 1.547549963
lclavicle  0 -9.442270133e-015 7.951389973e-016
lhumerus  -4.070340157 -15.66460037 78.04199982
lradius  2.848931816e-031 -2.086248199e-031 143.7850037
lwrist  -7.062250077e-031 -0 6.455749989
lhand  -1.496451383e-031 -27.76390076 20.11240005
lfingers  90 7.125020027 -90
lthumb  89.89689403 5.08795885 91.16245106
rclavicle  0 -9.442270133e-015 7.951389973e-016
rhumerus  4.208350182 27.86540031 -78.40820313
rradius  -2.410338981e-031 2.580525147e-031 133.0469971
rwrist  7.062250077e-031 -0 -7.323770046
rhand  -7.920061211e-032 -33.2840004 9.303460121
rfingers  -90 -7.125020027 -90
rthumb  -92.93752616 -24.25625642 -97.11982154
rfemur  -23.05509949 14.3611002 1.679999948
rtibia  -0 0 55.68159866
rfoot  -0 -9.328399658 7.190289974
rtoes  5.373923086 19.29304026 -105.8922705
lfemur  -26.28499985 6.672430038 -12.74600029
ltibia  -0 0 56.70740128
lfoot  4.41394667e-032 0.245055005 4.978300095
ltoes  -4.250644065 -19.5611806 -102.515957
